# xmcd
#
# Track frame offsets: 
#        150
#        13643
#        30009
#        43775
#        59225
#        70952
#        85235
#        98108
#        113746
#        125797
#        135798
#        147380
#        160575
#        176457
#        190827
#        204137
#        216734
#        228065
#        245129
#        259785
#        275144
#        293243
#
# Disc length: 4072 seconds
#
# Revision: 0
# Processed by: cddbd v1.5.2PL0 Copyright (c) Steve Scherf et al.
# Submitted via: ExactAudioCopy v0.99pb3
#
DISCID=440fe616
DTITLE=Ray Stevens - Turn Your Radio On - Misty
DYEAR=2005
DGENRE=Pop-Folk
TTITLE0=All My Trials
TTITLE1=Glory Special
TTITLE2=Have A Little Talk With Myself
TTITLE3=I'll Fly Away
TTITLE4=Let Your Love Be A Light Unto The People
TTITLE5=Love Lifted Me
TTITLE6=A Mama And A Papa
TTITLE7=Oh! Will There Be Any Stars
TTITLE8=Why Don't You Lead Me To That Rock
TTITLE9=Turn Your Radio On
TTITLE10=Yes, Jesus Loves Me
TTITLE11=Misty
TTITLE12=Indian Love Call
TTITLE13=Over The Rainbow
TTITLE14=Oh, Lonesome Me
TTITLE15=Sunshine
TTITLE16=Cow-Cow Boogie
TTITLE17=Young Love
TTITLE18=Deep Purple
TTITLE19=Mockingbird Hill
TTITLE20=Take Care Of Business
TTITLE21=Lady Of Spain
EXTD=
EXTT0=
EXTT1=
EXTT2=
EXTT3=
EXTT4=
EXTT5=
EXTT6=
EXTT7=
EXTT8=
EXTT9=
EXTT10=
EXTT11=
EXTT12=
EXTT13=
EXTT14=
EXTT15=
EXTT16=
EXTT17=
EXTT18=
EXTT19=
EXTT20=
EXTT21=
PLAYORDER=
